<svg xmlns="http://www.w3.org/2000/svg" width="256" height="173" viewBox="0 0 256 173" xml:space="preserve"><g/><g/><path d="M128.253 56.864c15.186 0 27.432-12.247 27.432-27.432S143.536 2 128.253 2c-15.186 0-27.432 12.247-27.432 27.432.097 15.284 12.344 27.432 27.432 27.432M64.571 136.32h-49.28c-15.969 0-16.851-24.395.294-24.395H58.3l24.493-36.054c7.25-9.895 15.48-14.598 27.138-14.598h36.544c11.659 0 19.888 4.311 27.138 14.598l24.591 36.054h43.01c17.243 0 16.165 24.395.588 24.395h-49.28c-3.919 0-8.622-1.372-11.365-5.584l-18.811-26.844-.098 67.209H94.844l-.098-67.209-18.811 26.844c-2.743 4.114-7.445 5.584-11.364 5.584"/><path d="M65 76.8 36 42 7 76.8h17.355V100H47.6V76.8zm126-11.6 29 34.8 29-34.8h-17.355V42H208.4v23.2z"/><g/></svg>